<?xml version="1.0"?>
<svg xmlns="http://www.w3.org/2000/svg" height="512px" viewBox="0 0 512 512.001" width="512px"><g><path d="m157.222656 333.570312 27.171875-27.175781-30.078125-30.078125 21.230469-21.230468 30.078125 30.078124 29.097656-29.097656-30.078125-30.078125 21.230469-21.230469 30.078125 30.078126 29.097656-29.097657-30.078125-30.078125 21.230469-21.230468 30.078125 30.078124 27.171875-27.171874c-36.433594-40.714844-59.613281-92.023438-65.925781-146.316407-13.949219 3.21875-27.507813 7.121094-40.613282 11.734375-48.25 16.980469-90.515624 43.398438-125.632812 78.515625-35.117188 35.117188-61.53125 77.382813-78.515625 125.632813-4.628906 13.148437-8.542969 26.753906-11.769531 40.75 54.261718 6.328125 105.535156 29.503906 146.226562 65.917968zm0 0" data-original="#000000" class="active-path" data-old_color="#ffffff" fill="#333"/><path d="m418.09375 93.515625c25.390625 25.386719 58.515625 41.863281 93.90625 46.835937-.464844-65.972656-13.753906-113.472656-14.375-115.648437l-2.289062-8.039063-8.039063-2.289062c-2.175781-.617188-49.847656-13.957031-115.988281-14.375 5.042968 35.238281 21.496094 68.222656 46.785156 93.515625zm0 0" data-original="#000000" class="active-path" data-old_color="#ffffff" fill="#333"/><path d="m511.28125 170.539062c-43.121094-5.273437-83.597656-24.972656-114.417969-55.792968-30.710937-30.714844-50.398437-71.046875-55.746093-114.003906-15 .832031-29.6875 2.363281-44.015626 4.585937 5.671876 53.265625 29.648438 103.4375 67.621094 141.414063 38.132813 38.128906 88.523438 62.125 142.027344 67.683593 2.199219-14.292969 3.714844-28.933593 4.53125-43.886719zm0 0" data-original="#000000" class="active-path" data-old_color="#ffffff" fill="#333"/><path d="m95.105469 416.5c-25.667969-25.667969-59.269531-42.230469-95.105469-47 .1875 67.085938 13.761719 115.59375 14.386719 117.789062l2.289062 8.042969 8.039063 2.289063c2.195312.621094 50.539062 14.148437 117.441406 14.378906-4.699219-35.988281-21.277344-69.726562-47.050781-95.5zm0 0" data-original="#000000" class="active-path" data-old_color="#ffffff" fill="#333"/><path d="m146.628906 364.839844c-37.953125-37.949219-88.085937-61.917969-141.3125-67.613282-2.125 13.726563-3.613281 27.78125-4.460937 42.125 43.511719 5.074219 84.417969 24.855469 115.480469 55.917969 31.175781 31.175781 50.964843 72.226563 55.964843 115.898438 14.296875-.832031 28.308594-2.304688 41.996094-4.40625-5.574219-53.464844-29.5625-103.816407-67.667969-141.921875zm0 0" data-original="#000000" class="active-path" data-old_color="#ffffff" fill="#333"/><path d="m354.714844 178.539062-27.203125 27.203126 30.078125 30.078124-21.230469 21.230469-30.078125-30.078125-29.101562 29.097656 30.082031 30.078126-21.230469 21.230468-30.082031-30.078125-29.097657 29.097657 30.082032 30.078124-21.230469 21.230469-30.082031-30.078125-27.203125 27.203125c36.265625 40.761719 59.269531 92.035157 65.460937 146.285157 14.160156-3.246094 27.921875-7.199219 41.21875-11.878907 48.25-16.980469 90.519532-43.394531 125.632813-78.511719 35.117187-35.117187 61.535156-77.386718 78.515625-125.636718 4.664062-13.25 8.605468-26.96875 11.84375-41.082032-54.28125-6.175781-105.585938-29.1875-146.375-65.46875zm0 0" data-original="#000000" class="active-path" data-old_color="#ffffff" fill="#333"/></g> </svg>
