<svg fill="#b17500" xmlns="http://www.w3.org/2000/svg" width="19" height="15" viewBox="0 0 19 15">
  <metadata><?xpacket begin="﻿" id="W5M0MpCehiHzreSzNTczkc9d"?>
<x:xmpmeta xmlns:x="adobe:ns:meta/" x:xmptk="Adobe XMP Core 5.6-c138 79.159824, 2016/09/14-01:09:01        ">
   <rdf:RDF xmlns:rdf="http://www.w3.org/1999/02/22-rdf-syntax-ns#">
      <rdf:Description rdf:about=""/>
   </rdf:RDF>
</x:xmpmeta>
                                                                                                    
                                                                                                    
                                                                                                    
                                                                                                    
                                                                                                    
                                                                                                    
                                                                                                    
                                                                                                    
                                                                                                    
                                                                                                    
                                                                                                    
                                                                                                    
                                                                                                    
                                                                                                    
                                                                                                    
                                                                                                    
                                                                                                    
                                                                                                    
                                                                                                    
                                                                                                    
                           
<?xpacket end="w"?></metadata>
  <path id="Forma_1" data-name="Forma 1" class="cls-1" d="M635.764,85a3.747,3.747,0,1,0,3.468,3.737A3.614,3.614,0,0,0,635.764,85Zm7.885,0.535h-0.024a2.859,2.859,0,0,0-2.111.97,3.378,3.378,0,0,0,.037,4.5,2.857,2.857,0,0,0,2.1.934h0.024a2.857,2.857,0,0,0,2.111-.97,3.31,3.31,0,0,0,.84-2.257A3.1,3.1,0,0,0,643.649,85.535Zm0.146,7.016h-0.288a5.14,5.14,0,0,0-3.489,1.367,6.842,6.842,0,0,1,2.614,5.049H649V97.841A5.254,5.254,0,0,0,643.795,92.551Zm-2.278,6.416a5.7,5.7,0,0,0-2.243-4.2,5.506,5.506,0,0,0-3.337-1.123h-0.346A5.637,5.637,0,0,0,630,99.326V100h11.528V99.326C641.528,99.205,641.524,99.086,641.517,98.967Z" transform="translate(-630 -85)"/>
</svg>
