<svg fill="#fff" xmlns="http://www.w3.org/2000/svg" width="17" height="17" viewBox="0 0 17 17">
  <metadata><?xpacket begin="﻿" id="W5M0MpCehiHzreSzNTczkc9d"?>
<x:xmpmeta xmlns:x="adobe:ns:meta/" x:xmptk="Adobe XMP Core 5.6-c138 79.159824, 2016/09/14-01:09:01        ">
   <rdf:RDF xmlns:rdf="http://www.w3.org/1999/02/22-rdf-syntax-ns#">
      <rdf:Description rdf:about=""/>
   </rdf:RDF>
</x:xmpmeta>
<?xpacket end="w"?></metadata>

  <path id="Forma_1" data-name="Forma 1" class="cls-1" d="M471.018,84v3.154a4.737,4.737,0,1,0,8.964,0V84h-8.964ZM470.8,90.5A7.778,7.778,0,0,1,468.012,85h2.009V84H467v0.5a8.767,8.767,0,0,0,1.914,5.48,8.866,8.866,0,0,0,3.378,2.59A7.7,7.7,0,0,1,470.8,90.5ZM480.978,84v1h2.01A7.778,7.778,0,0,1,480.2,90.5a7.7,7.7,0,0,1-1.489,2.067,8.81,8.81,0,0,0,4.784-5.117A8.776,8.776,0,0,0,484,84.5V84h-3.022Zm-1.66,16V96.019H476.5V94.1q-0.325.149-.667,0.269l-0.329.115-0.329-.115q-0.342-.12-0.667-0.269v1.924h-2.822V100h-1v1h9.629v-1h-1Zm-2.324-1.328h-2.988v-1h2.988v1Z" transform="translate(-467 -84)"/>
</svg>
